<?xml version="1.0" standalone="no"?><!DOCTYPE svg PUBLIC "-//W3C//DTD SVG 1.1//EN" "http://www.w3.org/Graphics/SVG/1.1/DTD/svg11.dtd"><svg t="1530525050880" class="icon" style="" viewBox="0 0 1024 1024" version="1.1" xmlns="http://www.w3.org/2000/svg" p-id="1207" xmlns:xlink="http://www.w3.org/1999/xlink" width="200" height="200"><defs><style type="text/css"></style></defs><path d="M204.8 0h614.4A204.8 204.8 0 0 1 1024 204.8v614.4a204.8 204.8 0 0 1-204.8 204.8H204.8A204.8 204.8 0 0 1 0 819.2V204.8A204.8 204.8 0 0 1 204.8 0z" fill="#05D380" p-id="1208"></path><path d="M305.152 295.584a531.392 531.392 0 0 1-58.016 88.064l-41.632-26.624c43.008-51.872 74.4-108.544 93.536-170.656l47.104 10.24a1217.408 1217.408 0 0 1-19.808 53.92h183.648v45.056h-96.256a541.76 541.76 0 0 1 32.096 61.44l-44.384 16.384a685.856 685.856 0 0 0-37.536-77.824H305.184z m281.952 0a614.08 614.08 0 0 1-40.288 60.064l-40.96-25.248a404.416 404.416 0 0 0 76.448-143.36l47.104 10.24a668.704 668.704 0 0 1-19.808 53.248h204.8v45.056h-110.592c16.384 25.952 30.048 50.528 40.288 72.352l-44.384 15.712a680.16 680.16 0 0 0-47.104-88.064h-65.536z m129.024 307.2v215.712h-47.104v-30.72h-314.016v30.72H307.904v-215.712h408.224z m-361.152 139.968h314.016v-94.88h-314.016v94.88z m0-234.176a1317.28 1317.28 0 0 1-128.352 59.392l-23.2-43.008c116.736-43.68 213.664-98.304 291.488-163.168h32.768c86.016 69.632 184.992 124.256 296.96 164.512l-23.904 42.336a1097.984 1097.984 0 0 1-130.4-60.064v30.72h-315.392v-30.72z m288.768-15.008a866.624 866.624 0 0 1-132.448-93.536 800.64 800.64 0 0 1-129.696 93.536h262.144z" fill="#FFFFFF" p-id="1209"></path></svg>